<?xml version="1.0" encoding="utf-8"?>
<!-- Generator: Adobe Illustrator 16.0.0, SVG Export Plug-In . SVG Version: 6.00 Build 0)  -->
<!DOCTYPE svg PUBLIC "-//W3C//DTD SVG 1.1//EN" "http://www.w3.org/Graphics/SVG/1.1/DTD/svg11.dtd">
<svg version="1.1" id="Calque_1" xmlns="http://www.w3.org/2000/svg" xmlns:xlink="http://www.w3.org/1999/xlink" x="0px" y="0px"
	 width="3710px" height="3710px" viewBox="0 0 3710 3710" enable-background="new 0 0 3710 3710" xml:space="preserve">
<g id="Background">
</g>
<g id="Illustration">
	<g>
		<path fill="#F4F7FA" d="M1148.492,617.716c-95.857,134.197,12.564,354.539-128.632,454.739
			c-137.444,97.538-303.304-66.455-432.751,17.388c-192.028,124.375-163.287,703.041,111.743,1065.282
			c82.71,108.939,152.329,151.719,182.072,274.252c63.868,263.109-171.941,416.744-128.745,546.996
			c97.263,293.279,1637.787,554.725,2266.188-316.992c293.489-407.127,342.987-998.959,89.354-1451.522
			C2649.406,390.08,1363.582,316.604,1148.492,617.716z"/>
		<g>
			<g>
				
					<linearGradient id="SVGID_1_" gradientUnits="userSpaceOnUse" x1="1172.1453" y1="491.188" x2="1327.7715" y2="845.1621" gradientTransform="matrix(1 0 0 -1 -185.0586 3390.0098)">
					<stop  offset="0" style="stop-color:#AA80F9"/>
					<stop  offset="0.9964" style="stop-color:#6165D7"/>
				</linearGradient>
				<path fill="url(#SVGID_1_)" d="M1514.959,2939.739l-768.726-236.472c-74.887-23.037-132.76-98.935-132.76-170.341v-0.784
					c0-71.406,57.873-117.668,132.76-102.358l826.336,158.452L1514.959,2939.739z"/>
				<g>
					
						<linearGradient id="SVGID_2_" gradientUnits="userSpaceOnUse" x1="1813.3948" y1="653.0928" x2="3310.3333" y2="653.0928" gradientTransform="matrix(-1 0 0 -1 4717.8071 3390.0098)">
						<stop  offset="0" style="stop-color:#D8DEE8"/>
						<stop  offset="1" style="stop-color:#FFFFFF"/>
					</linearGradient>
					<path fill="url(#SVGID_2_)" d="M2904.412,2843.396l-1351.22,81.575c-80.176,4.841-145.719-52.018-145.719-127.034v-50.893
						c0-75.018,65.543-138.575,145.719-141.931l1351.22-56.539V2843.396z"/>
					
						<linearGradient id="SVGID_3_" gradientUnits="userSpaceOnUse" x1="1558.4426" y1="652.4741" x2="3117.3596" y2="652.4741" gradientTransform="matrix(1 0 0 -1 -185.0586 3390.0098)">
						<stop  offset="0" style="stop-color:#AA80F9"/>
						<stop  offset="0.9964" style="stop-color:#6165D7"/>
					</linearGradient>
					<path fill="url(#SVGID_3_)" d="M2916.793,2858.361l-1352.838,83.01c-104.563,6.416-190.571-68.047-190.571-166.061v-1.076
						c0-98.014,86.008-181.273,190.571-185.553l1352.838-55.354c8.567-0.352,15.508,6.393,15.508,15.063
						c0,8.668-6.939,15.994-15.508,16.361l-1352.838,58.027c-84.186,3.611-153.283,70.713-153.283,149.549v1.075
						c0,78.835,69.099,138.87,153.283,133.871l1352.838-80.336c8.567-0.509,15.508,6.106,15.508,14.774
						C2932.301,2850.383,2925.361,2857.836,2916.793,2858.361z"/>
				</g>
			</g>
			<g>
				
					<linearGradient id="SVGID_4_" gradientUnits="userSpaceOnUse" x1="1402.9045" y1="1474.1064" x2="1122.2968" y2="528.8987" gradientTransform="matrix(1 0 0 -1 -185.0586 3390.0098)">
					<stop  offset="0" style="stop-color:#FFC444"/>
					<stop  offset="0.9964" style="stop-color:#F36F56"/>
				</linearGradient>
				<path fill="url(#SVGID_4_)" d="M1548.289,2588.236l-802.055-158.452c-74.887-15.31-132.76-114.368-132.76-221.586v-1.179
					c0-107.219,57.873-191.58,132.76-187.871l852.483,42.211L1548.289,2588.236z"/>
				<g>
					
						<linearGradient id="SVGID_5_" gradientUnits="userSpaceOnUse" x1="1813.3948" y1="1075.8135" x2="3310.3333" y2="1075.8135" gradientTransform="matrix(-1 0 0 -1 4717.8071 3390.0098)">
						<stop  offset="0" style="stop-color:#D8DEE8"/>
						<stop  offset="1" style="stop-color:#FFFFFF"/>
					</linearGradient>
					<path fill="url(#SVGID_5_)" d="M2904.412,2510.225l-1279.055,50.438c-119.654,4.719-217.884-82.722-217.884-195.362v-76.414
						c0-112.641,98.229-205.094,217.884-206.483l1279.055-14.855V2510.225z"/>
					
						<linearGradient id="SVGID_6_" gradientUnits="userSpaceOnUse" x1="1558.4426" y1="1072.9688" x2="3117.3596" y2="1072.9688" gradientTransform="matrix(1 0 0 -1 -185.0586 3390.0098)">
						<stop  offset="0" style="stop-color:#FFC444"/>
						<stop  offset="0.9964" style="stop-color:#F36F56"/>
					</linearGradient>
					<path fill="url(#SVGID_6_)" d="M2916.793,2533.328l-1352.838,55.354c-104.563,4.278-190.571-111.933-190.571-259.101v-1.617
						c0-147.17,86.008-267.779,190.571-268.848l1352.838-13.83c8.567-0.088,15.508,10.393,15.508,23.409
						c0,13.016-6.939,23.658-15.508,23.771l-1352.838,17.846c-84.186,1.109-153.283,98.325-153.283,216.697v1.615
						c0,118.373,69.099,212.054,153.283,208.859l1352.838-51.341c8.567-0.325,15.508,9.963,15.508,22.979
						C2932.301,2522.143,2925.361,2532.979,2916.793,2533.328z"/>
				</g>
			</g>
			<g>
				<g>
					
						<linearGradient id="SVGID_7_" gradientUnits="userSpaceOnUse" x1="821.0901" y1="1509.6401" x2="1659.9661" y2="1509.6401" gradientTransform="matrix(1 0 0 -1 -185.0586 3390.0098)">
						<stop  offset="0" style="stop-color:#FF9085"/>
						<stop  offset="1" style="stop-color:#FB6FBB"/>
					</linearGradient>
					<path fill="url(#SVGID_7_)" d="M1474.907,2038.375l-736.625-32.801c-57.467-2.56-102.251-49.344-102.251-104.594v-37.482
						c0-55.251,44.784-102.235,102.251-105.049l736.625-36.085V2038.375z"/>
					
						<linearGradient id="SVGID_8_" gradientUnits="userSpaceOnUse" x1="768.157" y1="1515.981" x2="1138.4412" y2="1511.9341" gradientTransform="matrix(1 0 0 -1 -185.0586 3390.0098)">
						<stop  offset="0" style="stop-color:#AA80F9"/>
						<stop  offset="0.9964" style="stop-color:#6165D7"/>
					</linearGradient>
					<path fill="url(#SVGID_8_)" d="M1390.464,2060.127l-644.229-40.979c-74.887-3.709-132.76-64.668-132.76-136.074v-0.785
						c0-71.406,57.873-132.605,132.76-136.624l642.206-40.05c12.338-0.662,126.519,6.433,126.519,15.852
						s-95.971,18.421-108.308,18.961l-660.417,31.678c-60.696,2.65-108.062,52.007-108.062,110.129v0.793
						c0,58.121,47.365,107.28,108.062,109.682l660.417,33.02c12.337,0.488,108.308,5.012,108.308,14.431
						C1514.959,2049.576,1402.801,2060.737,1390.464,2060.127z"/>
				</g>
				<g>
					
						<linearGradient id="SVGID_9_" gradientUnits="userSpaceOnUse" x1="1813.3948" y1="1507.7739" x2="3310.3333" y2="1507.7739" gradientTransform="matrix(-1 0 0 -1 4717.8071 3390.0098)">
						<stop  offset="0" style="stop-color:#D8DEE8"/>
						<stop  offset="1" style="stop-color:#FFFFFF"/>
					</linearGradient>
					<polygon fill="url(#SVGID_9_)" points="2904.412,2029.689 1407.474,2043.514 1407.474,1720.958 2904.412,1734.868 					"/>
					
						<linearGradient id="SVGID_10_" gradientUnits="userSpaceOnUse" x1="1558.4426" y1="1661.8359" x2="3117.3596" y2="1661.8359" gradientTransform="matrix(1 0 0 -1 -185.0586 3390.0098)">
						<stop  offset="0" style="stop-color:#AA80F9"/>
						<stop  offset="0.9964" style="stop-color:#6165D7"/>
					</linearGradient>
					<path fill="url(#SVGID_10_)" d="M2916.793,1751.676l-1524.745-12.567c-10.304-0.085-18.664-7.871-18.664-17.392
						c0-9.52,8.36-17.15,18.664-17.045l1524.745,15.581c8.567,0.087,15.508,7.187,15.508,15.855
						C2932.301,1744.776,2925.361,1751.747,2916.793,1751.676z"/>
					
						<linearGradient id="SVGID_11_" gradientUnits="userSpaceOnUse" x1="1558.4426" y1="1352.6406" x2="3117.3596" y2="1352.6406" gradientTransform="matrix(1 0 0 -1 -185.0586 3390.0098)">
						<stop  offset="0" style="stop-color:#AA80F9"/>
						<stop  offset="0.9964" style="stop-color:#6165D7"/>
					</linearGradient>
					<path fill="url(#SVGID_11_)" d="M2916.793,2045.287l-1524.745,15.588c-10.304,0.105-18.664-7.527-18.664-17.047
						s8.36-17.305,18.664-17.391l1524.745-12.574c8.567-0.07,15.508,6.899,15.508,15.567
						C2932.301,2038.101,2925.361,2045.199,2916.793,2045.287z"/>
				</g>
			</g>
			<path opacity="0.5" fill="#FFFFFF" enable-background="new    " d="M1294.129,2469.15l-172.305-34.461
				c-39.899-107.875-36.905-205.854,0-322.455l172.305,14.77C1258.621,2250.584,1263.99,2363.191,1294.129,2469.15z"/>
			
				<linearGradient id="SVGID_12_" gradientUnits="userSpaceOnUse" x1="1065.8821" y1="1307.4912" x2="1004.7946" y2="1397.9324" gradientTransform="matrix(1 0 0 -1 -185.0586 3390.0098)">
				<stop  offset="0" style="stop-color:#FFC444"/>
				<stop  offset="0.9964" style="stop-color:#F36F56"/>
			</linearGradient>
			<path opacity="0.3" fill="url(#SVGID_12_)" enable-background="new    " d="M949.521,2031.006l-4.923-179.688L773.524,2021.16
				c0,0-87.383,39.385-72.614,120.613l100.921-29.539l93.537,39.385C895.367,2151.619,897.761,2064.074,949.521,2031.006z"/>
			
				<linearGradient id="SVGID_13_" gradientUnits="userSpaceOnUse" x1="1049.009" y1="1332.4741" x2="959.7634" y2="1464.604" gradientTransform="matrix(1 0 0 -1 -185.0586 3390.0098)">
				<stop  offset="0" style="stop-color:#AA80F9"/>
				<stop  offset="0.9964" style="stop-color:#6165D7"/>
			</linearGradient>
			<path fill="url(#SVGID_13_)" d="M755.063,1856.24l189.535-4.922c0,0-91.075,61.537-49.229,300.301
				c0,0-81.229-31.999-115.689-76.307l-78.769,66.461C700.909,2141.773,654.142,1937.47,755.063,1856.24z"/>
		</g>
		<g>
			
				<linearGradient id="SVGID_14_" gradientUnits="userSpaceOnUse" x1="1144.5242" y1="2687.2041" x2="2104.459" y2="2035.1733" gradientTransform="matrix(1 0 0 -1 -103.9746 3390.0098)">
				<stop  offset="0" style="stop-color:#311944"/>
				<stop  offset="1" style="stop-color:#6B3976"/>
			</linearGradient>
			<path fill="url(#SVGID_14_)" d="M1093.287,1049.632c-18.059-11.708-1.604-45.768-0.632-118.924
				c1.192-89.65-22.62-106.356-3.495-141.528c23.387-43.01,82.254-60.809,121.254-61.646c8.603-0.185,10.612-4.882,82.677,13.781
				c129.832,33.625,162.334-2.42,220.475,33.585c56.173,34.788,31.575,72.886,86.123,113.682
				c88.418,66.129,181.396-5.364,244.587,49.951c59.771,52.32,61.148,185.623-1.722,258.369
				c-71.271,82.469-199.787,57.691-285.926,41.339c-18.124-3.439-109.663-22.663-204.975-93.01
				c-52.725-38.918-88.928-80.479-111.96-111.1c-5.404-6.083-13.841-13.455-24.975-14.641c-13.368-1.428-24.107,6.75-29.282,10.334
				C1158.266,1048.64,1111.027,1061.132,1093.287,1049.632z"/>
			
				<linearGradient id="SVGID_15_" gradientUnits="userSpaceOnUse" x1="1071.4578" y1="2185.7148" x2="1370.3308" y2="2185.7148" gradientTransform="matrix(1 0 0 -1 -197.5996 3390.0098)">
				<stop  offset="0.0036" style="stop-color:#E38DDD"/>
				<stop  offset="1" style="stop-color:#9571F6"/>
			</linearGradient>
			<path fill="url(#SVGID_15_)" d="M1165.847,1000.5c-23.219-21.153-106.08,19.617-160.992,73.729
				c-64.514,63.573-59.553,115.117-115.854,194.095c-27.986,39.263-21.125,184.579,54.167,135.415
				c52.302-34.153,79.213-79.406,130.899-168.519C1125.941,1145.785,1194.871,1026.944,1165.847,1000.5z"/>
			
				<linearGradient id="SVGID_16_" gradientUnits="userSpaceOnUse" x1="1387.2629" y1="1546.9229" x2="1528.3362" y2="1546.9229" gradientTransform="matrix(0.831 -0.5562 -0.5562 -0.831 344.3073 4315.248)">
				<stop  offset="0" style="stop-color:#311944"/>
				<stop  offset="1" style="stop-color:#6B3976"/>
			</linearGradient>
			<path fill="url(#SVGID_16_)" d="M658.725,2243.389l26.404-56.099c3.751-7.97,9.599-14.769,16.919-19.667l13.072-8.75
				c0,0,31.251-0.83,36.116,18.814c1.046,24.944-47.432,80.685-78.09,102.817c-5.09,3.675-12.347,8.571-16.758,6.052
				C648.921,2282.289,654.159,2259.343,658.725,2243.389z"/>
			
				<linearGradient id="SVGID_17_" gradientUnits="userSpaceOnUse" x1="779.1653" y1="1100.5571" x2="1009.3738" y2="1791.1851" gradientTransform="matrix(1 0 0 -1 -103.9746 3390.0098)">
				<stop  offset="0" style="stop-color:#FFC444"/>
				<stop  offset="0.9964" style="stop-color:#F36F56"/>
			</linearGradient>
			<path fill="url(#SVGID_17_)" d="M708.342,2128.372c4.158,24.062-1.103,36.606-6.772,43.633
				c-3.99,4.944-36.371,58.335-23.069,66.956c6.002,3.892,47.139-47.193,51.129-55.02c3.612-7.088,5.962-5.414,6.173-24.728
				c0.137-12.713,2.723-22.946,4.755-29.35C729.817,2129.367,719.08,2128.871,708.342,2128.372z"/>
			
				<linearGradient id="SVGID_18_" gradientUnits="userSpaceOnUse" x1="740.5657" y1="1417.6978" x2="819.6292" y2="1417.6978" gradientTransform="matrix(1 0 0 -1 -103.9746 3390.0098)">
				<stop  offset="0" style="stop-color:#311944"/>
				<stop  offset="1" style="stop-color:#6B3976"/>
			</linearGradient>
			<path fill="url(#SVGID_18_)" d="M661.582,1937.68c0,0-29.224,34.869-24.468,73.099c4.755,38.225,55.936-17.662,63.068-36.55
				c7.137-18.887,15.472-45.797,15.472-45.797S679.767,1906.104,661.582,1937.68z"/>
			
				<linearGradient id="SVGID_19_" gradientUnits="userSpaceOnUse" x1="694.7429" y1="1200.6035" x2="823.8456" y2="1587.9131" gradientTransform="matrix(1 0 0 -1 -103.9746 3390.0098)">
				<stop  offset="0" style="stop-color:#FFC444"/>
				<stop  offset="0.9964" style="stop-color:#F36F56"/>
			</linearGradient>
			<path fill="url(#SVGID_19_)" d="M672.73,1883.119c0,0,7.928,40.625-7.193,62.064c-7.53,10.68-17.689,19.737-14.702,28.431
				c2.002,5.825,9.604,10.011,16.043,9.35c12.327-1.266,19.16-20.165,23.98-33.495c7.119-19.688,11.087-61.817,11.087-61.817
				L672.73,1883.119z"/>
			
				<linearGradient id="SVGID_20_" gradientUnits="userSpaceOnUse" x1="853.8215" y1="1853.1294" x2="950.1162" y2="1296.4244" gradientTransform="matrix(1 0 0 -1 -103.9746 3390.0098)">
				<stop  offset="0" style="stop-color:#40447E"/>
				<stop  offset="0.9964" style="stop-color:#3C3B6B"/>
			</linearGradient>
			<path fill="url(#SVGID_20_)" d="M696.022,1917.365c-8.988-3.272-17.976-6.547-26.962-9.82
				c-14.021-32.025-31.132-84.624-25.417-148.556c14.699-164.415,166.764-251.539,183.657-260.863
				c41.431,20.788,83.396,50.113,84.917,87.082c1.906,46.408-61.314,70.938-120.744,138.8
				C755.799,1764.74,717.682,1825.434,696.022,1917.365z"/>
			
				<linearGradient id="SVGID_21_" gradientUnits="userSpaceOnUse" x1="989.8113" y1="1193.3545" x2="1126.7308" y2="1626.6819" gradientTransform="matrix(1 0 0 -1 -103.9746 3390.0098)">
				<stop  offset="0" style="stop-color:#40447E"/>
				<stop  offset="0.9964" style="stop-color:#3C3B6B"/>
			</linearGradient>
			<path fill="url(#SVGID_21_)" d="M705.709,2147.178c-29.694-115.998-22.107-210.656-13.543-265.187
				c12.949-82.419,39.283-250.068,151.214-312.583c24.442-13.651,59.385-25.876,101.973-63.83
				c35.565-31.693,58.17-65.027,71.809-88.511c149.694-43.913,287.767-26.117,348.693,54.166
				c7.04,9.276,24.664,29.398,28.074,59.067c7.693,66.943-58.083,147.537-131.892,164.367c-93.804,21.39-53.811-7.346-136.92,24.7
				c-23.248,8.964-151.668-0.699-191.089,43.729c-50.147,56.519-64.039,72.964-74.705,93.833
				c-31.757,62.141-55.839,108.012-59.352,167.461c-0.817,13.851-1.308,41.83-17.528,72.008
				c-12.452,23.164-29.331,38.609-41.888,48.152C728.94,2145.426,717.324,2146.304,705.709,2147.178z"/>
			
				<linearGradient id="SVGID_22_" gradientUnits="userSpaceOnUse" x1="989.2053" y1="1193.5439" x2="1126.1249" y2="1626.8715" gradientTransform="matrix(1 0 0 -1 -103.9746 3390.0098)">
				<stop  offset="0" style="stop-color:#40447E"/>
				<stop  offset="0.9964" style="stop-color:#3C3B6B"/>
			</linearGradient>
			<path opacity="0.3" fill="url(#SVGID_22_)" enable-background="new    " d="M1393.929,1530.301
				c-3.41-29.669-21.034-49.791-28.075-59.067c-60.926-80.283-198.998-98.079-348.693-54.166
				c-13.638,23.483-36.242,56.817-71.806,88.511c-42.589,37.954-77.531,50.179-101.975,63.83
				c-68.351,38.174-104.75,115.54-125.708,188.774c31.096-48.213,57.712-61.03,78.312-61.26
				c29.486-0.327,42.66,24.881,77.864,21.441c33.655-3.289,39.453-31.306,76.736-38.367c32.109-6.082,55.856,11.505,80.659,23.133
				c103.061,48.316,225.843-16.099,231.468-18.685C1323.31,1656.583,1402.009,1600.61,1393.929,1530.301z"/>
			
				<linearGradient id="SVGID_23_" gradientUnits="userSpaceOnUse" x1="1182.4875" y1="1909.3154" x2="1278.5599" y2="1353.8958" gradientTransform="matrix(1 0 0 -1 -103.9746 3390.0098)">
				<stop  offset="0" style="stop-color:#40447E"/>
				<stop  offset="0.9964" style="stop-color:#3C3B6B"/>
			</linearGradient>
			<path fill="url(#SVGID_23_)" d="M783.27,1621.291c16.943-0.899,43.035-1.421,74.507,1.689
				c149.363,14.76,190.539,88.642,313.984,106.67c29.202,4.266,159.22,23.255,215.536-51.908
				c40.428-53.963,34.312-146.946-9.909-183.518c-18.715-15.478-37.245-15.048-157.104-13.965
				c-45.138,0.409-90.277,0.556-135.415,1.131c-191.066,2.435-227.607-10.798-262.372,20.805
				C806.28,1516.938,782.565,1548.604,783.27,1621.291z"/>
			<g>
				<g>
					
						<linearGradient id="SVGID_24_" gradientUnits="userSpaceOnUse" x1="1385.2078" y1="2175.2588" x2="1503.5168" y2="1634.4176" gradientTransform="matrix(1 0 0 -1 -197.5996 3390.0098)">
						<stop  offset="0.0036" style="stop-color:#E38DDD"/>
						<stop  offset="1" style="stop-color:#9571F6"/>
					</linearGradient>
					<path fill="url(#SVGID_24_)" d="M1186.633,1008.253c0,0,150.815-43.981,217.236,31.207
						c12.194,13.804,21.836,31.958,28.852,66.998c35.752,178.565-99.475,285.817-46.198,380.021
						c21.157,37.408,58.42,48.679,84.9,115.908c4.482,11.381,20.698,52.551,5.818,65.521c-13.104,11.424-34.653-12.695-72.935-8.037
						c-40.539,4.932-50.01,36.074-77.286,31.54c-17.783-2.958-25.449-18.14-51.646-55.993
						c-37.929-54.801-56.893-82.201-70.487-91.809c-53.636-37.907-95.092,11.526-156.259-26.009
						c-22.145-13.591-104.191-119.227-80.054-90.208l0,0c57.455-71.676,70.807-130.811,72.179-171.927
						c1.505-45.076-11.488-65.563,0-118.849c0,0,12.817-59.455,59.062-110.51
						C1106.452,1018.778,1114.366,1011.145,1186.633,1008.253z"/>
				</g>
			</g>
			<g>
				
					<linearGradient id="SVGID_25_" gradientUnits="userSpaceOnUse" x1="3876.2776" y1="2413.4658" x2="3886.0886" y2="2674.7991" gradientTransform="matrix(-0.984 0.1784 -0.1784 -0.984 5476.2354 2801.3018)">
					<stop  offset="0" style="stop-color:#FFC444"/>
					<stop  offset="0.9964" style="stop-color:#F36F56"/>
				</linearGradient>
				<path fill="url(#SVGID_25_)" d="M1235.056,910.431c-2.042,9.542-12.439,60.747,8.511,73.921
					c4.542,2.858,13.266,4.492,30.719,7.765c11.428,2.141,21.015,3.454,27.775,4.263c-0.977,8.586-3.869,22.563-13.778,35.275
					c-27.776,35.636-83.473,26.415-91.415,24.968c-28.015-5.103-55.583-13.757-62.24-19.047
					c-10.138-8.056-18.108-14.099-22.822-20.239c10.842-5.239,32.729-19.056,47.418-23.578c10.978-3.376,21.282-5.787,30.656-7.517
					c1.539-9.892,3.082-19.783,4.623-29.674C1208.021,941.188,1221.538,925.81,1235.056,910.431z"/>
				
					<linearGradient id="SVGID_26_" gradientUnits="userSpaceOnUse" x1="3873.2161" y1="2644.1709" x2="3869.0166" y2="2305.8162" gradientTransform="matrix(-0.984 0.1784 -0.1784 -0.984 5476.2354 2801.3018)">
					<stop  offset="0" style="stop-color:#FFC444"/>
					<stop  offset="0.9964" style="stop-color:#F36F56"/>
				</linearGradient>
				<path fill="url(#SVGID_26_)" d="M1236.036,935.95c0,0-3.786,37.523-40.262,44.137c-32.661,5.921-57.246-73.002-40.532-93.416
					c5.576-6.81,19.34-13.289,31.272-12.946c8.392,0.244,36.737,11.039,40.692,39.4c5.646-5.947,12.68-7.656,16.147-5.166
					c4.399,3.159,2.043,12.345,1.508,14.426C1243.013,929.596,1238.306,934.065,1236.036,935.95z"/>
			</g>
			
				<linearGradient id="SVGID_27_" gradientUnits="userSpaceOnUse" x1="1161.7761" y1="1927.1895" x2="1680.9929" y2="1927.1895" gradientTransform="matrix(1 0 0 -1 -197.5996 3390.0098)">
				<stop  offset="0" style="stop-color:#AA80F9"/>
				<stop  offset="0.9964" style="stop-color:#6165D7"/>
			</linearGradient>
			<path opacity="0.3" fill="url(#SVGID_27_)" enable-background="new    " d="M968.574,1427.392
				c6.913-8.625,13.154-17.057,18.847-25.308c31.687-10.618,59.101-14.567,81.214-15.641c49.882-2.419,77.195,9.316,111.149-11.115
				c38.541-23.193,31.72-55.389,68.913-73.359c39.146-18.914,66.823,2.46,104.48-4.444c22.742-4.171,50.443-19.378,78.713-63.744
				c-21.647,106.815-84.608,183.316-45.369,252.698c21.157,37.408,58.42,48.679,84.9,115.908
				c4.482,11.381,20.697,52.551,5.818,65.521c-13.104,11.424-34.654-12.695-72.935-8.037c-40.539,4.932-50.011,36.074-77.286,31.54
				c-17.783-2.958-25.449-18.14-51.647-55.993c-37.929-54.801-56.892-82.201-70.486-91.809
				c-53.636-37.907-95.095,11.526-156.259-26.009C1026.483,1504.009,944.438,1398.373,968.574,1427.392z"/>
			<g>
				
					<linearGradient id="SVGID_28_" gradientUnits="userSpaceOnUse" x1="1566.9846" y1="2215.0225" x2="1685.2938" y2="1674.1812" gradientTransform="matrix(1 0 0 -1 -197.5996 3390.0098)">
					<stop  offset="0.0036" style="stop-color:#E38DDD"/>
					<stop  offset="1" style="stop-color:#9571F6"/>
				</linearGradient>
				<path fill="url(#SVGID_28_)" d="M1236.569,1434.314c-4.441-11.729-8.884-23.457-13.325-35.187
					c49.089-13.46,116.981-33.344,186.618-58.228c10.906-3.898,23.863-8.726,28.107-20.201
					c11.907-32.192-63.792-65.553-93.22-135.846c-27.218-65.011-12.236-155.229,19.35-165.888
					c65.728-22.179,298.805,267.947,215.559,390.25C1532.604,1478.351,1387.529,1489.359,1236.569,1434.314z"/>
			</g>
			
				<linearGradient id="SVGID_29_" gradientUnits="userSpaceOnUse" x1="1203.0022" y1="1982.5947" x2="923.7323" y2="2469.8308" gradientTransform="matrix(1 0 0 -1 -197.5996 3390.0098)">
				<stop  offset="0" style="stop-color:#311944"/>
				<stop  offset="1" style="stop-color:#6B3976"/>
			</linearGradient>
			<path fill="url(#SVGID_29_)" d="M1043.404,1436.018c-6.466-5.647-75.017-257.598-94.754-330.523
				c-2.333-8.618-13.173-11.353-19.351-4.904l-72.453,75.633l73.302,303.579l37.909,18.324
				C968.057,1498.125,1050.966,1442.624,1043.404,1436.018z"/>
			
				<linearGradient id="SVGID_30_" gradientUnits="userSpaceOnUse" x1="1105.5676" y1="1842.1943" x2="1272.9138" y2="2130.646" gradientTransform="matrix(1 0 0 -1 -197.5996 3390.0098)">
				<stop  offset="0" style="stop-color:#311944"/>
				<stop  offset="1" style="stop-color:#6B3976"/>
			</linearGradient>
			<path fill="url(#SVGID_30_)" d="M1190.694,1449.152l-62.889-277.682c-3.247-14.339-16.989-23.757-31.532-21.613l-209.528,30.892
				l77.432,317.376l201.138-14.71C1182.474,1482.16,1194.493,1465.932,1190.694,1449.152z"/>
			
				<linearGradient id="SVGID_31_" gradientUnits="userSpaceOnUse" x1="2489.7356" y1="1990.1191" x2="2365.75" y2="1873.2786" gradientTransform="matrix(-1 0 0 -1 3637.311 3390.0098)">
				<stop  offset="0" style="stop-color:#FFC444"/>
				<stop  offset="0.9964" style="stop-color:#F36F56"/>
			</linearGradient>
			<path fill="url(#SVGID_31_)" d="M1223.243,1399.128c-30.816-16.371-67.708,0.409-70.084,1.532
				c-6.771,3.197-16.627,8.891-26.583,19.062c-1.127,1.536-14.494,20.061-9.625,25.996c3.904,4.755,19.021,0.813,37.19-10.487
				c7.617-1.066,18.954-2.048,32.537-0.797c24.942,2.302,36.369,10.182,45.423,3.379c6.63-4.979,8.89-15.506,6.503-23.332
				C1236.043,1406.07,1228.459,1401.9,1223.243,1399.128z"/>
			
				<rect x="950.351" y="1226.92" transform="matrix(-0.9906 0.137 -0.137 -0.9906 2210.7419 2347.9319)" fill="#FFFFFF" width="148.447" height="46.243"/>
		</g>
		<g>
			
				<linearGradient id="SVGID_32_" gradientUnits="userSpaceOnUse" x1="2293.0881" y1="886.5996" x2="2157.8718" y2="-2047.1401" gradientTransform="matrix(1 0 0 -1 -197.5996 3390.0098)">
				<stop  offset="0.0036" style="stop-color:#26264F"/>
				<stop  offset="1" style="stop-color:#444B8C"/>
			</linearGradient>
			<path fill="url(#SVGID_32_)" d="M2894.088,1152.525c0.118-29.359-23.767-53.725-53.451-54.418l-1426.16-33.346
				c-35.451-0.828-64.297,24.647-64.297,56.9V3021.02c0,31.926,28.691,55.114,63.956,51.813l1419.249-132.913
				c29.554-2.769,53.527-28.581,53.646-57.668L2894.088,1152.525z"/>
			<g>
				
					<linearGradient id="SVGID_33_" gradientUnits="userSpaceOnUse" x1="2429.345" y1="2513.1621" x2="2294.1287" y2="-420.5771" gradientTransform="matrix(1 0 0 -1 -197.5996 3390.0098)">
					<stop  offset="0" style="stop-color:#444B8C"/>
					<stop  offset="0.9964" style="stop-color:#26264F"/>
				</linearGradient>
				<path fill="url(#SVGID_33_)" d="M2955.504,1149.733c0.121-29.36-23.765-53.725-53.449-54.418l-1426.16-33.347
					c-35.451-0.828-64.297,24.647-64.297,56.9v1899.357c0,31.925,28.691,55.113,63.956,51.812l1419.248-132.913
					c29.555-2.77,53.526-28.581,53.646-57.667L2955.504,1149.733z"/>
				
					<linearGradient id="SVGID_34_" gradientUnits="userSpaceOnUse" x1="2429.9641" y1="2337.376" x2="2315.2288" y2="-151.9971" gradientTransform="matrix(1 0 0 -1 -197.5996 3390.0098)">
					<stop  offset="0.494" style="stop-color:#EBEFF2"/>
					<stop  offset="1" style="stop-color:#FFFFFF"/>
				</linearGradient>
				<path fill="url(#SVGID_34_)" d="M2890.531,1269.417l-5.857,1498.442c-0.062,15.459-12.815,29.041-28.546,30.373
					l-1331.111,112.636c-18.535,1.567-33.56-10.771-33.556-27.591l0.346-1631.072c0.002-9.267,4.516-17.522,11.665-23.033
					c5.92-4.604,13.608-7.311,22.054-7.192l1336.574,18.841C2877.889,1241.043,2890.592,1253.834,2890.531,1269.417z"/>
				<path opacity="0.9" fill="#FFFFFF" enable-background="new    " d="M2831.928,2800.279l-1305.907,110.504
					c-18.533,1.568-34.565-10.687-34.562-27.506l0.347-1631.072c0.002-9.267,5.021-17.516,12.171-23.026
					c4.291,9.679,9.167,19.22,14.155,28.562c146.943,275.068,440.423,91.428,633.755,362.455
					c151.193,211.945,33.76,414.947,204.365,650.021c134.758,185.627,255.481,120.158,378.129,298.806
					C2781.584,2637.779,2812.238,2718.236,2831.928,2800.279z"/>
			</g>
			<g>
				<g>
					<defs>
						<path id="SVGID_35_" d="M2890.531,1269.417l-5.857,1498.442c-0.062,15.459-12.815,29.041-28.546,30.373l-1331.111,112.636
							c-18.535,1.567-33.56-10.771-33.556-27.591l0.346-1631.072c0.002-9.267,4.516-17.522,11.665-23.033
							c5.92-4.604,13.608-7.311,22.054-7.192l1336.574,18.841C2877.889,1241.043,2890.592,1253.834,2890.531,1269.417z"/>
					</defs>
					<clipPath id="SVGID_36_">
						<use xlink:href="#SVGID_35_"  overflow="visible"/>
					</clipPath>
					<g opacity="0.5" clip-path="url(#SVGID_36_)">
						<polygon fill="#FFFFFF" points="2305.398,2238.288 2088.832,2248.352 2088.877,2224.248 2305.455,2214.5 						"/>
						<polygon fill="#FFFFFF" points="2304.01,2818.85 2087.764,2836.588 2087.808,2812.561 2304.066,2795.133 						"/>
					</g>
				</g>
				<g>
					<defs>
						<path id="SVGID_37_" d="M2890.531,1269.417l-5.857,1498.442c-0.062,15.459-12.815,29.041-28.546,30.373l-1331.111,112.636
							c-18.535,1.567-33.56-10.771-33.556-27.591l0.346-1631.072c0.002-9.267,4.516-17.522,11.665-23.033
							c5.92-4.604,13.608-7.311,22.054-7.192l1336.574,18.841C2877.889,1241.043,2890.592,1253.834,2890.531,1269.417z"/>
					</defs>
					<clipPath id="SVGID_38_">
						<use xlink:href="#SVGID_37_"  overflow="visible"/>
					</clipPath>
					<g clip-path="url(#SVGID_38_)">
						<g>
							<g>
								
									<linearGradient id="SVGID_39_" gradientUnits="userSpaceOnUse" x1="2125.5784" y1="1715.438" x2="2288.1448" y2="1715.438" gradientTransform="matrix(1 0 0 -1 -197.5996 3390.0098)">
									<stop  offset="0" style="stop-color:#FF9085"/>
									<stop  offset="1" style="stop-color:#FB6FBB"/>
								</linearGradient>
								<polygon fill="url(#SVGID_39_)" points="2089.213,2039.354 1927.979,2044.809 1929.008,1304.335 2090.545,1306.034 								
									"/>
								<polygon fill="#FFFFFF" points="2037.963,1901.201 1977.47,1902.738 1978.163,1445.704 2038.729,1445.828 								"/>
							</g>
							
								<linearGradient id="SVGID_40_" gradientUnits="userSpaceOnUse" x1="2042.8147" y1="1714.0376" x2="2126.5432" y2="1714.0376" gradientTransform="matrix(1 0 0 -1 -197.5996 3390.0098)">
								<stop  offset="0" style="stop-color:#FF9085"/>
								<stop  offset="1" style="stop-color:#FB6FBB"/>
							</linearGradient>
							<polygon fill="url(#SVGID_40_)" points="1928.944,1304.335 1845.214,1348.146 1845.214,2047.609 1927.979,2044.809 							
								"/>
						</g>
						<g>
							
								<linearGradient id="SVGID_41_" gradientUnits="userSpaceOnUse" x1="2037.8723" y1="2509.5508" x2="1971.9778" y2="713.9768" gradientTransform="matrix(1 0 0 -1 -197.5996 3390.0098)">
								<stop  offset="0" style="stop-color:#AA80F9"/>
								<stop  offset="0.9964" style="stop-color:#6165D7"/>
							</linearGradient>
							<polygon fill="url(#SVGID_41_)" points="1927.979,2044.809 1692.114,2052.789 1692.653,1348.7 1928.944,1350.53 							"/>
							<g>
								<g opacity="0.9">
									<polygon fill="#FFFFFF" points="1928.834,1429.308 1692.592,1428.592 1692.611,1403.801 1928.868,1404.863 									"/>
									<polygon fill="#FFFFFF" points="1928.778,1470.042 1692.561,1469.902 1692.578,1445.117 1928.813,1445.602 									"/>
								</g>
								<g opacity="0.9">
									<polygon fill="#FFFFFF" points="1928.107,1952.746 1692.186,1959.428 1692.204,1934.707 1928.141,1928.369 									"/>
									<polygon fill="#FFFFFF" points="1928.051,1993.367 1692.154,2000.622 1692.173,1975.906 1928.084,1968.996 									"/>
								</g>
							</g>
						</g>
						<g>
							<g>
								
									<linearGradient id="SVGID_42_" gradientUnits="userSpaceOnUse" x1="1856.1399" y1="2282.5977" x2="1589.5908" y2="-699.4446" gradientTransform="matrix(1 0 0 -1 -197.5996 3390.0098)">
									<stop  offset="0" style="stop-color:#FFC444"/>
									<stop  offset="0.9964" style="stop-color:#F36F56"/>
								</linearGradient>
								<polygon fill="url(#SVGID_42_)" points="1692.114,2052.789 1523.004,2058.51 1523.244,1300.069 1692.688,1301.851 								
									"/>
								<polygon opacity="0.5" fill="#FFFFFF" enable-background="new    " points="1671.623,1398.189 1547.621,1397.593 
									1547.642,1344.797 1671.66,1345.778 								"/>
							</g>
							
								<linearGradient id="SVGID_43_" gradientUnits="userSpaceOnUse" x1="1637.115" y1="1710.0229" x2="1720.8445" y2="1710.0229" gradientTransform="matrix(1 0 0 -1 -197.5996 3390.0098)">
								<stop  offset="0" style="stop-color:#FFC444"/>
								<stop  offset="0.9964" style="stop-color:#F36F56"/>
							</linearGradient>
							<polygon fill="url(#SVGID_43_)" points="1523.244,1300.069 1439.515,1343.881 1439.515,2059.904 1523.004,2058.51 							"/>
						</g>
					</g>
				</g>
				<g>
					<defs>
						<path id="SVGID_44_" d="M2890.531,1269.417l-5.857,1498.442c-0.062,15.459-12.815,29.041-28.546,30.373l-1331.111,112.636
							c-18.535,1.567-33.56-10.771-33.556-27.591l0.346-1631.072c0.002-9.267,4.516-17.522,11.665-23.033
							c5.92-4.604,13.608-7.311,22.054-7.192l1336.574,18.841C2877.889,1241.043,2890.592,1253.834,2890.531,1269.417z"/>
					</defs>
					<clipPath id="SVGID_45_">
						<use xlink:href="#SVGID_44_"  overflow="visible"/>
					</clipPath>
					<g clip-path="url(#SVGID_45_)">
						<g>
							
								<linearGradient id="SVGID_46_" gradientUnits="userSpaceOnUse" x1="2980.9358" y1="2034.5156" x2="2870.5466" y2="1020.3134" gradientTransform="matrix(1 0 0 -1 -197.5996 3390.0098)">
								<stop  offset="0.0036" style="stop-color:#E38DDD"/>
								<stop  offset="1" style="stop-color:#9571F6"/>
							</linearGradient>
							<polygon fill="url(#SVGID_46_)" points="2822.23,2014.555 2675.037,2019.534 2677.42,1312.205 2824.864,1313.755 							"/>
							<polygon fill="#FFFFFF" points="2775.701,1882.464 2720.479,1883.866 2722.002,1447.23 2777.282,1447.345 							"/>
						</g>
						
							<linearGradient id="SVGID_47_" gradientUnits="userSpaceOnUse" x1="2790.967" y1="1721.8682" x2="2874.6975" y2="1721.8682" gradientTransform="matrix(1 0 0 -1 -197.5996 3390.0098)">
							<stop  offset="0.0036" style="stop-color:#E38DDD"/>
							<stop  offset="1" style="stop-color:#9571F6"/>
						</linearGradient>
						<polygon fill="url(#SVGID_47_)" points="2677.098,1312.205 2593.366,1353.947 2593.366,2024.078 2676.856,2019.534 						"/>
					</g>
				</g>
				<g>
					<defs>
						<path id="SVGID_48_" d="M2890.531,1269.417l-5.857,1498.442c-0.062,15.459-12.815,29.041-28.546,30.373l-1331.111,112.636
							c-18.535,1.567-33.56-10.771-33.556-27.591l0.346-1631.072c0.002-9.267,4.516-17.522,11.665-23.033
							c5.92-4.604,13.608-7.311,22.054-7.192l1336.574,18.841C2877.889,1241.043,2890.592,1253.834,2890.531,1269.417z"/>
					</defs>
					<clipPath id="SVGID_49_">
						<use xlink:href="#SVGID_48_"  overflow="visible"/>
					</clipPath>
					<g clip-path="url(#SVGID_49_)">
						
							<linearGradient id="SVGID_50_" gradientUnits="userSpaceOnUse" x1="2794.6252" y1="2482.1094" x2="2731.7422" y2="768.5969" gradientTransform="matrix(1 0 0 -1 -197.5996 3390.0098)">
							<stop  offset="0" style="stop-color:#40447E"/>
							<stop  offset="0.9964" style="stop-color:#3C3B6B"/>
						</linearGradient>
						<polygon fill="url(#SVGID_50_)" points="2675.037,2019.534 2459.942,2026.813 2461.823,1354.659 2677.272,1356.329 						"/>
						<g>
							<g opacity="0.9">
								<polygon fill="#FFFFFF" points="2677.019,1431.574 2461.61,1430.922 2461.677,1407.257 2677.098,1408.226 								"/>
								<polygon fill="#FFFFFF" points="2676.888,1470.483 2461.5,1470.355 2461.566,1446.696 2676.967,1447.139 								"/>
							</g>
							<g opacity="0.9">
								<polygon fill="#FFFFFF" points="2675.334,1931.586 2460.192,1937.679 2460.258,1914.078 2675.412,1908.299 								"/>
								<polygon fill="#FFFFFF" points="2675.203,1970.393 2460.082,1977.008 2460.148,1953.411 2675.281,1947.109 								"/>
							</g>
						</g>
					</g>
				</g>
				<g>
					<defs>
						<path id="SVGID_51_" d="M2890.531,1269.417l-5.857,1498.442c-0.062,15.459-12.815,29.041-28.546,30.373l-1331.111,112.636
							c-18.535,1.567-33.56-10.771-33.556-27.591l0.346-1631.072c0.002-9.267,4.516-17.522,11.665-23.033
							c5.92-4.604,13.608-7.311,22.054-7.192l1336.574,18.841C2877.889,1241.043,2890.592,1253.834,2890.531,1269.417z"/>
					</defs>
					<clipPath id="SVGID_52_">
						<use xlink:href="#SVGID_51_"  overflow="visible"/>
					</clipPath>
					<g clip-path="url(#SVGID_52_)">
						<g>
							
								<linearGradient id="SVGID_53_" gradientUnits="userSpaceOnUse" x1="2629.8987" y1="2265.2324" x2="2375.7102" y2="-578.5247" gradientTransform="matrix(1 0 0 -1 -197.5996 3390.0098)">
								<stop  offset="0" style="stop-color:#AA80F9"/>
								<stop  offset="0.9964" style="stop-color:#6165D7"/>
							</linearGradient>
							<polygon fill="url(#SVGID_53_)" points="2459.942,2026.813 2305.891,2032.023 2307.621,1308.317 2461.948,1309.939 							
								"/>
							<polygon opacity="0.5" fill="#FFFFFF" enable-background="new    " points="2442.564,1401.906 2329.621,1401.362 
								2329.743,1350.984 2442.701,1351.878 							"/>
						</g>
						
							<linearGradient id="SVGID_54_" gradientUnits="userSpaceOnUse" x1="2421.5901" y1="1719.9971" x2="2505.3206" y2="1719.9971" gradientTransform="matrix(1 0 0 -1 -197.5996 3390.0098)">
							<stop  offset="0" style="stop-color:#AA80F9"/>
							<stop  offset="0.9964" style="stop-color:#6165D7"/>
						</linearGradient>
						<polygon fill="url(#SVGID_54_)" points="2307.721,1308.038 2223.99,1349.78 2223.99,2031.987 2307.479,2030.658 						"/>
					</g>
				</g>
				<g>
					<defs>
						<path id="SVGID_55_" d="M2890.531,1269.417l-5.857,1498.442c-0.062,15.459-12.815,29.041-28.546,30.373l-1331.111,112.636
							c-18.535,1.567-33.56-10.771-33.556-27.591l0.346-1631.072c0.002-9.267,4.516-17.522,11.665-23.033
							c5.92-4.604,13.608-7.311,22.054-7.192l1336.574,18.841C2877.889,1241.043,2890.592,1253.834,2890.531,1269.417z"/>
					</defs>
					<clipPath id="SVGID_56_">
						<use xlink:href="#SVGID_55_"  overflow="visible"/>
					</clipPath>
					<polygon clip-path="url(#SVGID_56_)" fill="#D8DEE8" points="2887.45,2073.886 1491.623,2126.539 1491.639,2054.297 
						2887.711,2007.518 					"/>
				</g>
				<g>
					<defs>
						<path id="SVGID_57_" d="M2890.531,1269.417l-5.857,1498.442c-0.062,15.459-12.815,29.041-28.546,30.373l-1331.111,112.636
							c-18.535,1.567-33.56-10.771-33.556-27.591l0.346-1631.072c0.002-9.267,4.516-17.522,11.665-23.033
							c5.92-4.604,13.608-7.311,22.054-7.192l1336.574,18.841C2877.889,1241.043,2890.592,1253.834,2890.531,1269.417z"/>
					</defs>
					<clipPath id="SVGID_58_">
						<use xlink:href="#SVGID_57_"  overflow="visible"/>
					</clipPath>
					<g clip-path="url(#SVGID_58_)">
						<g>
							
								<linearGradient id="SVGID_59_" gradientUnits="userSpaceOnUse" x1="2997.7405" y1="1474.752" x2="2878.0044" y2="222.7244" gradientTransform="matrix(1 0 0 -1 -197.5996 3390.0098)">
								<stop  offset="0" style="stop-color:#FFC444"/>
								<stop  offset="0.9964" style="stop-color:#F36F56"/>
							</linearGradient>
							<polygon fill="url(#SVGID_59_)" points="2819.214,2817.396 2672.309,2829.828 2674.682,2125.535 2821.836,2119.578 							
								"/>
							<g>
								<g opacity="0.9">
									<polygon fill="#FFFFFF" points="2821.623,2175.908 2674.49,2182.389 2674.568,2159.133 2821.711,2152.867 									"/>
									<polygon fill="#FFFFFF" points="2821.48,2214.307 2674.359,2221.143 2674.438,2197.891 2821.566,2191.27 									"/>
								</g>
								<g opacity="0.9">
									<polygon fill="#FFFFFF" points="2819.511,2738.287 2672.577,2749.986 2672.655,2726.799 2819.598,2715.314 									"/>
									<polygon fill="#FFFFFF" points="2819.366,2776.57 2672.447,2788.623 2672.525,2765.441 2819.452,2753.602 									"/>
								</g>
							</g>
						</g>
						
							<linearGradient id="SVGID_60_" gradientUnits="userSpaceOnUse" x1="2757.5354" y1="886.5527" x2="2872.1331" y2="886.5527" gradientTransform="matrix(1 0 0 -1 -197.5996 3390.0098)">
							<stop  offset="0" style="stop-color:#FFC444"/>
							<stop  offset="0.9964" style="stop-color:#F36F56"/>
						</linearGradient>
						<polygon fill="url(#SVGID_60_)" points="2674.532,2125.725 2559.935,2132.311 2564.854,2881.189 2673.596,2880.162 						"/>
					</g>
				</g>
				<g>
					<defs>
						<path id="SVGID_61_" d="M2890.531,1269.417l-5.857,1498.442c-0.062,15.459-12.815,29.041-28.546,30.373l-1331.111,112.636
							c-18.535,1.567-33.56-10.771-33.556-27.591l0.346-1631.072c0.002-9.267,4.516-17.522,11.665-23.033
							c5.92-4.604,13.608-7.311,22.054-7.192l1336.574,18.841C2877.889,1241.043,2890.592,1253.834,2890.531,1269.417z"/>
					</defs>
					<clipPath id="SVGID_62_">
						<use xlink:href="#SVGID_61_"  overflow="visible"/>
					</clipPath>
					<g clip-path="url(#SVGID_62_)">
						<g>
							
								<linearGradient id="SVGID_63_" gradientUnits="userSpaceOnUse" x1="2792.4504" y1="1674.2188" x2="2728.8235" y2="-59.5638" gradientTransform="matrix(1 0 0 -1 -197.5996 3390.0098)">
								<stop  offset="0" style="stop-color:#AA80F9"/>
								<stop  offset="0.9964" style="stop-color:#6165D7"/>
							</linearGradient>
							<polygon fill="url(#SVGID_63_)" points="2672.309,2829.828 2457.645,2847.992 2459.518,2178.764 2674.532,2169.469 							
								"/>
						</g>
						<polygon fill="#FFFFFF" points="2608.865,2724.027 2522.98,2730.698 2524.287,2290.68 2610.267,2286.35 						"/>
					</g>
				</g>
				<g>
					<defs>
						<path id="SVGID_64_" d="M2890.531,1269.417l-5.857,1498.442c-0.062,15.459-12.815,29.041-28.546,30.373l-1331.111,112.636
							c-18.535,1.567-33.56-10.771-33.556-27.591l0.346-1631.072c0.002-9.267,4.516-17.522,11.665-23.033
							c5.92-4.604,13.608-7.311,22.054-7.192l1336.574,18.841C2877.889,1241.043,2890.592,1253.834,2890.531,1269.417z"/>
					</defs>
					<clipPath id="SVGID_65_">
						<use xlink:href="#SVGID_64_"  overflow="visible"/>
					</clipPath>
					<g clip-path="url(#SVGID_65_)">
						<g>
							
								<linearGradient id="SVGID_66_" gradientUnits="userSpaceOnUse" x1="2628.0667" y1="1442.0449" x2="2372.2725" y2="-1419.675" gradientTransform="matrix(1 0 0 -1 -197.5996 3390.0098)">
								<stop  offset="0" style="stop-color:#FF9085"/>
								<stop  offset="1" style="stop-color:#FB6FBB"/>
							</linearGradient>
							<polygon fill="url(#SVGID_66_)" points="2457.645,2847.992 2303.908,2861.002 2305.632,2140.473 2459.643,2134.238 							
								"/>
							<polygon opacity="0.5" fill="#FFFFFF" enable-background="new    " points="2440.298,2226.777 2327.586,2231.979 
								2327.709,2181.822 2440.435,2176.967 							"/>
							<polygon opacity="0.5" fill="#FFFFFF" enable-background="new    " points="2438.693,2810.412 2326.146,2819.663 
								2326.27,2769.662 2438.83,2760.756 							"/>
						</g>
						
							<linearGradient id="SVGID_67_" gradientUnits="userSpaceOnUse" x1="2388.594" y1="871.7148" x2="2503.1936" y2="871.7148" gradientTransform="matrix(1 0 0 -1 -197.5996 3390.0098)">
							<stop  offset="0" style="stop-color:#FF9085"/>
							<stop  offset="1" style="stop-color:#FB6FBB"/>
						</linearGradient>
						<polygon fill="url(#SVGID_67_)" points="2305.594,2140.563 2190.994,2147.146 2195.914,2896.027 2304.656,2894.998 						"/>
					</g>
				</g>
				<g>
					<defs>
						<path id="SVGID_68_" d="M2890.531,1269.417l-5.857,1498.442c-0.062,15.459-12.815,29.041-28.546,30.373l-1331.111,112.636
							c-18.535,1.567-33.56-10.771-33.556-27.591l0.346-1631.072c0.002-9.267,4.516-17.522,11.665-23.033
							c5.92-4.604,13.608-7.311,22.054-7.192l1336.574,18.841C2877.889,1241.043,2890.592,1253.834,2890.531,1269.417z"/>
					</defs>
					<clipPath id="SVGID_69_">
						<use xlink:href="#SVGID_68_"  overflow="visible"/>
					</clipPath>
					<g clip-path="url(#SVGID_69_)">
						
							<linearGradient id="SVGID_70_" gradientUnits="userSpaceOnUse" x1="2412.6877" y1="1245.3154" x2="2366.6272" y2="334.9349" gradientTransform="matrix(1 0 0 -1 -197.5996 3390.0098)">
							<stop  offset="0" style="stop-color:#AA80F9"/>
							<stop  offset="0.9964" style="stop-color:#6165D7"/>
						</linearGradient>
						<polygon fill="url(#SVGID_70_)" points="2303.908,2861.002 2087.687,2879.298 2088.984,2165.316 2305.594,2156.338 						"/>
						<polygon fill="#FFFFFF" points="2134.061,2875.35 2086.705,2879.298 2086.926,2165.117 2134.339,2163.436 						"/>
					</g>
				</g>
				<g>
					<defs>
						<path id="SVGID_71_" d="M2890.531,1269.417l-5.857,1498.442c-0.062,15.459-12.815,29.041-28.546,30.373l-1331.111,112.636
							c-18.535,1.567-33.56-10.771-33.556-27.591l0.346-1631.072c0.002-9.267,4.516-17.522,11.665-23.033
							c5.92-4.604,13.608-7.311,22.054-7.192l1336.574,18.841C2877.889,1241.043,2890.592,1253.834,2890.531,1269.417z"/>
					</defs>
					<clipPath id="SVGID_72_">
						<use xlink:href="#SVGID_71_"  overflow="visible"/>
					</clipPath>
					<g clip-path="url(#SVGID_72_)">
						<g>
							
								<linearGradient id="SVGID_73_" gradientUnits="userSpaceOnUse" x1="2261.0754" y1="1455.127" x2="2135.6157" y2="143.2513" gradientTransform="matrix(1 0 0 -1 -197.5996 3390.0098)">
								<stop  offset="0" style="stop-color:#FFC444"/>
								<stop  offset="0.9964" style="stop-color:#F36F56"/>
							</linearGradient>
							<polygon fill="url(#SVGID_73_)" points="2087.687,2879.298 1926.801,2892.912 1927.823,2155.766 2089.014,2149.24 							"/>
							<g>
								<g opacity="0.9">
									<polygon fill="#FFFFFF" points="2088.906,2208.178 1927.741,2215.275 1927.775,2190.934 2088.948,2184.069 									"/>
									<polygon fill="#FFFFFF" points="2088.832,2248.352 1927.686,2255.84 1927.72,2231.502 2088.877,2224.248 									"/>
								</g>
								<g opacity="0.9">
									<polygon fill="#FFFFFF" points="2087.836,2796.539 1926.916,2809.352 1926.949,2785.085 2087.881,2772.506 									"/>
									<polygon fill="#FFFFFF" points="2087.764,2836.588 1926.859,2849.788 1926.894,2825.527 2087.808,2812.561 									"/>
								</g>
							</g>
						</g>
						
							<linearGradient id="SVGID_74_" gradientUnits="userSpaceOnUse" x1="2008.4143" y1="856.3613" x2="2126.2092" y2="856.3613" gradientTransform="matrix(1 0 0 -1 -197.5996 3390.0098)">
							<stop  offset="0" style="stop-color:#FFC444"/>
							<stop  offset="0.9964" style="stop-color:#F36F56"/>
						</linearGradient>
						<polygon fill="url(#SVGID_74_)" points="1928.609,2155.916 1810.814,2169.469 1810.814,2911.381 1927.742,2910.354 						"/>
					</g>
				</g>
				<g>
					<defs>
						<path id="SVGID_75_" d="M2890.531,1269.417l-5.857,1498.442c-0.062,15.459-12.815,29.041-28.546,30.373l-1331.111,112.636
							c-18.535,1.567-33.56-10.771-33.556-27.591l0.346-1631.072c0.002-9.267,4.516-17.522,11.665-23.033
							c5.92-4.604,13.608-7.311,22.054-7.192l1336.574,18.841C2877.889,1241.043,2890.592,1253.834,2890.531,1269.417z"/>
					</defs>
					<clipPath id="SVGID_76_">
						<use xlink:href="#SVGID_75_"  overflow="visible"/>
					</clipPath>
					<g clip-path="url(#SVGID_76_)">
						<g>
							
								<linearGradient id="SVGID_77_" gradientUnits="userSpaceOnUse" x1="2037.3274" y1="1664.0806" x2="1970.6177" y2="-153.7087" gradientTransform="matrix(1 0 0 -1 -197.5996 3390.0098)">
								<stop  offset="0" style="stop-color:#40447E"/>
								<stop  offset="0.9964" style="stop-color:#3C3B6B"/>
							</linearGradient>
							<polygon fill="url(#SVGID_77_)" points="1926.801,2892.912 1691.455,2912.826 1691.992,2211.944 1927.761,2201.752 							
								"/>
						</g>
						<polygon fill="#FFFFFF" points="1857.026,2782.428 1762.865,2789.742 1763.305,2328.998 1857.578,2324.252 						"/>
					</g>
				</g>
				<g>
					<defs>
						<path id="SVGID_78_" d="M2890.531,1269.417l-5.857,1498.442c-0.062,15.459-12.815,29.041-28.546,30.373l-1331.111,112.636
							c-18.535,1.567-33.56-10.771-33.556-27.591l0.346-1631.072c0.002-9.267,4.516-17.522,11.665-23.033
							c5.92-4.604,13.608-7.311,22.054-7.192l1336.574,18.841C2877.889,1241.043,2890.592,1253.834,2890.531,1269.417z"/>
					</defs>
					<clipPath id="SVGID_79_">
						<use xlink:href="#SVGID_78_"  overflow="visible"/>
					</clipPath>
					<g clip-path="url(#SVGID_79_)">
						<g>
							
								<linearGradient id="SVGID_80_" gradientUnits="userSpaceOnUse" x1="1856.0149" y1="1420.356" x2="1587.7042" y2="-1581.3938" gradientTransform="matrix(1 0 0 -1 -197.5996 3390.0098)">
								<stop  offset="0.0036" style="stop-color:#E38DDD"/>
								<stop  offset="1" style="stop-color:#9571F6"/>
							</linearGradient>
							<polygon fill="url(#SVGID_80_)" points="1691.455,2912.826 1522.729,2927.104 1522.969,2172.152 1692.028,2165.309 							
								"/>
							<polygon opacity="0.5" fill="#FFFFFF" enable-background="new    " points="1671.011,2262.277 1547.288,2267.986 
								1547.309,2215.434 1671.047,2210.104 							"/>
							<polygon opacity="0.5" fill="#FFFFFF" enable-background="new    " points="1670.575,2873.549 1547.054,2883.703 
								1547.073,2831.32 1670.613,2821.545 							"/>
						</g>
						
							<linearGradient id="SVGID_81_" gradientUnits="userSpaceOnUse" x1="1656.657" y1="839.6108" x2="1721.2664" y2="839.6108" gradientTransform="matrix(1 0 0 -1 -197.5996 3390.0098)">
							<stop  offset="0.0036" style="stop-color:#E38DDD"/>
							<stop  offset="1" style="stop-color:#9571F6"/>
						</linearGradient>
						<polygon fill="url(#SVGID_81_)" points="1523.666,2172.666 1459.057,2179.251 1459.057,2928.132 1522.729,2927.104 						"/>
					</g>
				</g>
			</g>
		</g>
		<g>
			
				<linearGradient id="SVGID_82_" gradientUnits="userSpaceOnUse" x1="1262.3826" y1="545.7539" x2="2060.4866" y2="545.7539" gradientTransform="matrix(1 0 0 -1 -197.5996 3390.0098)">
				<stop  offset="0" style="stop-color:#FFC444"/>
				<stop  offset="0.9964" style="stop-color:#F36F56"/>
			</linearGradient>
			<polygon fill="url(#SVGID_82_)" points="1064.782,2806.827 1435.618,2790.703 1862.886,2805.676 1441.377,2897.809 			"/>
			<g>
				
					<linearGradient id="SVGID_83_" gradientUnits="userSpaceOnUse" x1="1350.7542" y1="229.335" x2="1415.8125" y2="377.3112" gradientTransform="matrix(1 0 0 -1 -197.5996 3390.0098)">
					<stop  offset="0" style="stop-color:#AA80F9"/>
					<stop  offset="0.9964" style="stop-color:#6165D7"/>
				</linearGradient>
				<path fill="url(#SVGID_83_)" d="M1363.571,3164.177l-300.384-80.845c-30.251-8.143-53.755-38.115-53.755-67.184v-0.318
					c0-29.068,23.504-48.57,53.755-43.234l322.176,52.723L1363.571,3164.177z"/>
				<g>
					
						<linearGradient id="SVGID_84_" gradientUnits="userSpaceOnUse" x1="1520.2507" y1="314.2148" x2="2061.0002" y2="314.2148" gradientTransform="matrix(1 0 0 -1 -197.5996 3390.0098)">
						<stop  offset="0" style="stop-color:#D8DEE8"/>
						<stop  offset="1" style="stop-color:#FFFFFF"/>
					</linearGradient>
					<path fill="url(#SVGID_84_)" d="M1863.4,3103.463l-485.355,54.203c-30.399,3.396-55.394-17.805-55.394-47.398v-20.074
						c0-29.594,24.993-55.573,55.394-57.993l485.355-38.634C1841.924,3033.549,1836.968,3070.954,1863.4,3103.463z"/>
					
						<linearGradient id="SVGID_85_" gradientUnits="userSpaceOnUse" x1="1507.2019" y1="313.959" x2="2070.51" y2="313.959" gradientTransform="matrix(1 0 0 -1 -197.5996 3390.0098)">
						<stop  offset="0" style="stop-color:#AA80F9"/>
						<stop  offset="0.9964" style="stop-color:#6165D7"/>
					</linearGradient>
					<path fill="url(#SVGID_85_)" d="M1867.625,3108.846l-485.515,55.051c-39.651,4.496-72.509-23.275-72.509-61.991v-0.427
						c0-38.717,32.857-72.776,72.509-75.868l485.515-37.867c2.922-0.229,5.285,2.204,5.285,5.432c0,3.229-2.363,6.038-5.285,6.275
						l-485.515,39.528c-31.899,2.598-58.237,30.039-58.237,61.136v0.424c0,31.096,26.339,53.498,58.237,49.99l485.515-53.39
						c2.922-0.321,5.285,2.035,5.285,5.264C1872.91,3105.63,1870.547,3108.516,1867.625,3108.846z"/>
				</g>
			</g>
			<g>
				
					<linearGradient id="SVGID_86_" gradientUnits="userSpaceOnUse" x1="1445.1995" y1="628.3389" x2="1331.1416" y2="244.1433" gradientTransform="matrix(1 0 0 -1 -197.5996 3390.0098)">
					<stop  offset="0" style="stop-color:#FFC444"/>
					<stop  offset="0.9964" style="stop-color:#F36F56"/>
				</linearGradient>
				<path fill="url(#SVGID_86_)" d="M1376.19,3025.645l-313.003-53.049c-30.251-5.336-53.755-44.988-53.755-88.634v-0.479
					c0-43.645,23.504-78.278,53.755-77.155l332.035,12.334L1376.19,3025.645z"/>
				<g>
					
						<linearGradient id="SVGID_87_" gradientUnits="userSpaceOnUse" x1="1520.2507" y1="475.8467" x2="2061.0002" y2="475.8467" gradientTransform="matrix(1 0 0 -1 -197.5996 3390.0098)">
						<stop  offset="0" style="stop-color:#D8DEE8"/>
						<stop  offset="1" style="stop-color:#FFFFFF"/>
					</linearGradient>
					<path fill="url(#SVGID_87_)" d="M1863.4,2979.271l-458.153,34.557c-45.187,3.408-82.596-29.792-82.596-74.228v-30.144
						c0-44.437,37.409-81.478,82.596-82.709l458.153-12.49C1841.854,2874.17,1837.037,2930.271,1863.4,2979.271z"/>
					
						<linearGradient id="SVGID_88_" gradientUnits="userSpaceOnUse" x1="1507.2019" y1="474.1787" x2="2070.51" y2="474.1787" gradientTransform="matrix(1 0 0 -1 -197.5996 3390.0098)">
						<stop  offset="0" style="stop-color:#FFC444"/>
						<stop  offset="0.9964" style="stop-color:#F36F56"/>
					</linearGradient>
					<path fill="url(#SVGID_88_)" d="M1867.625,2987.742l-485.515,37.867c-39.651,3.092-72.509-41.64-72.509-99.771v-0.64
						c0-58.134,32.857-106.243,72.509-107.229l485.515-12.065c2.922-0.072,5.285,3.798,5.285,8.645c0,4.849-2.363,8.849-5.285,8.937
						l-485.515,14.561c-31.899,0.957-58.237,39.732-58.237,86.422v0.638c0,46.69,26.339,82.758,58.237,80.434l485.515-35.373
						c2.922-0.213,5.285,3.545,5.285,8.392C1872.91,2983.4,1870.547,2987.514,1867.625,2987.742z"/>
				</g>
			</g>
			<path opacity="0.5" fill="#FFFFFF" enable-background="new    " d="M1279.129,2981.904l-66.906-11.691
				c-15.624-42.645-14.449-81.814,0-128.635l66.906,4.756C1265.416,2895.602,1267.491,2940.229,1279.129,2981.904z"/>
		</g>
		<g>
			
				<linearGradient id="SVGID_89_" gradientUnits="userSpaceOnUse" x1="3566.5286" y1="412.4741" x2="3585.6182" y2="169.5165" gradientTransform="matrix(1 -0.0024 -0.0024 -1 -987.7078 3397.5923)">
				<stop  offset="0" style="stop-color:#311944"/>
				<stop  offset="1" style="stop-color:#A03976"/>
			</linearGradient>
			<path fill="url(#SVGID_89_)" d="M2615.352,3097.639c0,0-76.755,35.107-77.996,40.687c-1.242,5.577,49.41-1.988,70.098-1.233
				c20.688,0.756,37.688-5.398,35.796-14.156c-1.895-8.758-9.188-30.777-9.188-30.777L2615.352,3097.639z"/>
			
				<linearGradient id="SVGID_90_" gradientUnits="userSpaceOnUse" x1="3615.8098" y1="277.2114" x2="3612.3394" y2="528.8231" gradientTransform="matrix(1 -0.0024 -0.0024 -1 -987.7078 3397.5923)">
				<stop  offset="0" style="stop-color:#FFC444"/>
				<stop  offset="0.9964" style="stop-color:#F36F56"/>
			</linearGradient>
			<path fill="url(#SVGID_90_)" d="M2612.473,3069.304l4.757,34.585c0,0,12.175,4.301,20.335-0.839l3.395-37.952L2612.473,3069.304z
				"/>
			
				<linearGradient id="SVGID_91_" gradientUnits="userSpaceOnUse" x1="3927.2629" y1="440.8091" x2="3946.3513" y2="197.8661" gradientTransform="matrix(1 -0.0024 -0.0024 -1 -987.7078 3397.5923)">
				<stop  offset="0" style="stop-color:#311944"/>
				<stop  offset="1" style="stop-color:#A03976"/>
			</linearGradient>
			<path fill="url(#SVGID_91_)" d="M2974.34,3069.265l8.972,14.325c2.51,4.008,3.267,8.836,2.079,13.412
				c-3.098,11.939-9.284,35.207-11.991,41.275c-3.687,8.27-53.399,13.293-53.399,13.293s-4.448-6.228,5.856-13.789
				c10.306-7.563,16.938-8.764,20.556-19.896c3.616-11.129,5.973-42.594,5.973-42.594L2974.34,3069.265z"/>
			
				<linearGradient id="SVGID_92_" gradientUnits="userSpaceOnUse" x1="3946.4016" y1="281.7705" x2="3942.9312" y2="533.3979" gradientTransform="matrix(1 -0.0024 -0.0024 -1 -987.7078 3397.5923)">
				<stop  offset="0" style="stop-color:#FFC444"/>
				<stop  offset="0.9964" style="stop-color:#F36F56"/>
			</linearGradient>
			<path fill="url(#SVGID_92_)" d="M2937.05,3032.891c3.271,2.597,19.357,51.031,19.357,51.031s5.187,6.6,14.982-3.181
				s4.434-4.388,4.434-4.388l-1.956-47.672L2937.05,3032.891z"/>
			
				<linearGradient id="SVGID_93_" gradientUnits="userSpaceOnUse" x1="3555.7571" y1="684.8281" x2="3741.7981" y2="684.8281" gradientTransform="matrix(1 -0.0024 -0.0024 -1 -987.7078 3397.5923)">
				<stop  offset="0" style="stop-color:#444B8C"/>
				<stop  offset="0.9964" style="stop-color:#3E4177"/>
			</linearGradient>
			<path fill="url(#SVGID_93_)" d="M2568.525,2374.35c-3.807,103.209-3.702,215.33,2.524,335.097
				c7.009,134.864,20.742,259.496,37.945,372.463c6.296,0.187,12.91,0.203,19.818-0.007c4.665-0.142,9.186-0.379,13.554-0.69
				c8.729-23.455,19.042-54.295,28.254-91.123c9.685-38.727,15.499-73.457,19.622-106.666
				c14.517-116.922-2.85-127.077,8.951-213.731c10.451-76.744,25.568-79.777,43.063-188.743
				c18.979-118.233,4.597-135.929-2.395-142.317C2710.109,2311.432,2640.418,2330.163,2568.525,2374.35z"/>
			
				<linearGradient id="SVGID_94_" gradientUnits="userSpaceOnUse" x1="3555.7581" y1="684.8213" x2="3741.7974" y2="684.8213" gradientTransform="matrix(1 -0.0024 -0.0024 -1 -987.7078 3397.5923)">
				<stop  offset="0" style="stop-color:#444B8C"/>
				<stop  offset="0.9964" style="stop-color:#3E4177"/>
			</linearGradient>
			<path opacity="0.3" fill="url(#SVGID_94_)" enable-background="new    " d="M2739.863,2338.629
				c-28.378-25.939-93.098-10.039-161.397,29.82c78.888,84.822,87.599,139.947,78.251,175.754
				c-10.563,40.467-42.946,52.19-42.718,96.413c0.282,54.343,49.362,68.62,48.459,126.128c-0.6,38.027-22.15,37.684-27.127,84.662
				c-5.89,55.585,22.313,74.666,13.291,115.803c-3.881,17.697-15.021,40.836-46.857,64.722c2.34,16.879,4.738,33.587,7.234,49.979
				c6.293,0.184,12.907,0.203,19.815-0.01c4.665-0.141,9.187-0.379,13.553-0.689c8.73-23.455,19.043-54.293,28.255-91.123
				c9.685-38.727,15.499-73.457,19.622-106.666c14.517-116.922-2.85-127.078,8.951-213.732
				c10.451-76.743,25.568-79.777,43.062-188.743C2761.235,2362.713,2746.854,2345.016,2739.863,2338.629z"/>
			
				<linearGradient id="SVGID_95_" gradientUnits="userSpaceOnUse" x1="3607.4075" y1="703.168" x2="3981.928" y2="703.168" gradientTransform="matrix(1 -0.0024 -0.0024 -1 -987.7078 3397.5923)">
				<stop  offset="0" style="stop-color:#444B8C"/>
				<stop  offset="0.9964" style="stop-color:#3E4177"/>
			</linearGradient>
			<path fill="url(#SVGID_95_)" d="M2617.26,2372.5c67.986,98.969,141.358,222.168,207.064,369.684
				c49.653,111.479,85.725,216.172,112.246,309.491c3.563,1.64,11.965,4.905,22.688,3.462c14.626-1.971,23.372-11.33,25.657-13.941
				c10.543-66.969,9.227-123.659,5.496-164.569c-2.39-26.19-6.609-69.81-23.438-123.627
				c-18.851-60.284-31.717-63.644-56.271-127.412c-25.486-66.188-19.392-82.733-43.846-165.583
				c-10.046-34.035-26.847-84.678-54.515-145.237C2747.315,2334.01,2682.287,2353.256,2617.26,2372.5z"/>
			
				<linearGradient id="SVGID_96_" gradientUnits="userSpaceOnUse" x1="2822.054" y1="1465.0068" x2="3313.3665" y2="358.1434" gradientTransform="matrix(1 0 0 -1 -197.5996 3390.0098)">
				<stop  offset="0" style="stop-color:#FFC444"/>
				<stop  offset="0.9964" style="stop-color:#F36F56"/>
			</linearGradient>
			<path fill="url(#SVGID_96_)" d="M2341.078,2232.857c0.645,24.082,40.225,45.293,72.095,51.799
				c74.515,15.209,160.905-38.935,201.909-98.827c8.052-11.761,16.998-26.019,19.153-24.915
				c4.875,2.496-39.921,76.098-59.344,159.809c-9.937,42.824-7.336,62.883-25.912,91.394c-4.209,6.458-9.394,13.182-7.572,20.824
				c4.564,19.135,48.326,24.104,78.684,27.551c32.05,3.639,61.937,3.286,91.481,2.854c47.299-0.69,51.022-3.147,61.819,2.15
				c32.897,16.146,30.668,54.83,55.425,59.989c20.79,4.333,41.88-18.884,48.566-26.243c34.757-38.262,32.898-84.391,39.063-130.92
				c14.331-108.172,73.102-226.688,130.589-301.711c17.438-22.753,29.562-34.722,30.318-55.868
				c2.223-62.075-96.119-130.601-177.997-138.474c-22.441-2.156-62.63-1.479-100.304,2.074c-15.059,1.418-31.088,3.507-48.318,6.521
				c-41.785,7.312-70.877,12.397-100.521,25.961c-119.544,54.697-93.456,176.452-222.844,260.636
				C2382.879,2196.405,2340.405,2207.639,2341.078,2232.857z"/>
			
				<linearGradient id="SVGID_97_" gradientUnits="userSpaceOnUse" x1="3027.22" y1="1463.2695" x2="3055.4575" y2="1585.6326" gradientTransform="matrix(1 0 0 -1 -197.5996 3390.0098)">
				<stop  offset="0" style="stop-color:#AB316D"/>
				<stop  offset="1" style="stop-color:#792D3D"/>
			</linearGradient>
			<path fill="url(#SVGID_97_)" d="M2830.89,1807.874c0,0,5.134,28.652,16.952,49.05c10.682,18.435,54.844,25.042,64.043,28.251
				c9.2,3.208-13.879,19.231-38.427,25.041c-24.544,5.812-96.342,9.608-110.403,1.881c-14.063-7.728,9.133-10.091,26.021-18.97
				c16.891-8.88,22.539-44.975,17.311-60.318C2801.156,1817.461,2830.89,1807.874,2830.89,1807.874z"/>
			<g>
				
					<linearGradient id="SVGID_98_" gradientUnits="userSpaceOnUse" x1="4840.6533" y1="716.1426" x2="4776.8198" y2="878.2676" gradientTransform="matrix(0.9989 0.0475 0.0475 -0.9989 -2014.553 2397.1709)">
					<stop  offset="0" style="stop-color:#444B8C"/>
					<stop  offset="0.9964" style="stop-color:#3E4177"/>
				</linearGradient>
				<path fill="url(#SVGID_98_)" d="M2784.225,1799.582c-17.813-12.73-22.744-47.154-12.852-54.882
					c2.827-2.208,5.527-1.194,45.727,14.93c19.962,8.009,29.781,12.272,33.015,21.088c1.976,5.382,1.655,12.651-0.525,18.38
					c-1.123,2.947-3.313,6.617-8.177,13.621c-4.318,6.215-4.027,6.004-5.353,7.812c-3.18,4.338-9.313,11.644-20.554,20.112
					c-0.626-3.168-1.613-7.101-3.27-11.389c-0.638-1.649-3.205-8.098-7.275-13.529
					C2797.953,1806.374,2790.006,1803.714,2784.225,1799.582z"/>
				
					<linearGradient id="SVGID_99_" gradientUnits="userSpaceOnUse" x1="2999.5862" y1="1549.5635" x2="3039.1189" y2="1650.2778" gradientTransform="matrix(1 0 0 -1 -197.5996 3390.0098)">
					<stop  offset="0" style="stop-color:#AB316D"/>
					<stop  offset="1" style="stop-color:#792D3D"/>
				</linearGradient>
				<path fill="url(#SVGID_99_)" d="M2829.873,1832.32c0,0-11.653,17.36-33.239,15.006c-19.327-2.11-20.265-45.699-7.48-54.382
					c4.265-2.897,12.593-3.813,19.236-1.634c3.925,1.287,5.196,2.998,11.649,4.976c5.949,1.825,7.682,1.23,9.432,2.842
					c2.188,2.012,3.647,6.774-0.703,19.316c3.861-3.583,8.364-4.826,11.443-3.204c0.49,0.258,1.781,1.222,2.471,2.627
					C2845.174,1822.951,2840.364,1829.092,2829.873,1832.32z"/>
			</g>
			
				<linearGradient id="SVGID_100_" gradientUnits="userSpaceOnUse" x1="2550.387" y1="1193.3232" x2="2851.6877" y2="1193.3232" gradientTransform="matrix(1 0 0 -1 -197.5996 3390.0098)">
				<stop  offset="0" style="stop-color:#AA80F9"/>
				<stop  offset="0.9964" style="stop-color:#6165D7"/>
			</linearGradient>
			<path opacity="0.3" fill="url(#SVGID_100_)" enable-background="new    " d="M2445.604,2229.156
				c54.027-12.168,75.555-11.775,102.271-33.303c44.48-35.841,51.162-90.39,77.012-89.723c12.216,0.315,22.14,12.79,29.201,25.008
				c-6.508,10.19-13.016,20.383-19.522,30.573c-0.026-0.388-0.112-0.688-0.329-0.799c-2.156-1.104-11.104,13.154-19.154,24.915
				c-41.004,59.895-127.395,114.036-201.908,98.827c-21.366-4.361-46.145-15.349-60.387-29.361
				C2389.564,2242.871,2420.975,2234.703,2445.604,2229.156z"/>
			
				<linearGradient id="SVGID_101_" gradientUnits="userSpaceOnUse" x1="3092.2288" y1="1584.9326" x2="3583.5388" y2="478.0747" gradientTransform="matrix(1 0 0 -1 -197.5996 3390.0098)">
				<stop  offset="0" style="stop-color:#FFC444"/>
				<stop  offset="0.9964" style="stop-color:#F36F56"/>
			</linearGradient>
			<path fill="url(#SVGID_101_)" d="M3014.183,2436.861c32.729,2.92,106.407,4.252,158.517-43.957
				c86.752-80.254,43.717-233.017,13.519-298.715c-34.62-75.325-89.724-117.488-123.211-143.111
				c-41.546-31.789-66.904-51.192-97.412-46.849c-78.899,11.236-133.545,172.947-90.229,219.245
				c14.18,15.157,28.222,6.574,69.259,19.645c13.364,4.256,113.106,36.024,130.474,109.486
				c12.154,51.416-18.792,111.623-73.869,152.059C3005.545,2415.396,3009.864,2426.129,3014.183,2436.861z"/>
			
				<linearGradient id="SVGID_102_" gradientUnits="userSpaceOnUse" x1="2741.9651" y1="1097.7539" x2="3360.1204" y2="1097.7539" gradientTransform="matrix(1 0 0 -1 -197.5996 3390.0098)">
				<stop  offset="0" style="stop-color:#FFC444"/>
				<stop  offset="0.9964" style="stop-color:#F36F56"/>
			</linearGradient>
			<path opacity="0.3" fill="url(#SVGID_102_)" enable-background="new    " d="M2647.311,2410.225
				c37.055-23.418,42.537-47.15,84.031-63.188c53.904-20.834,79.809,5.631,106.533-15.736c31.806-25.429,3.649-69.729,27.45-146.604
				c4.04-13.05,34.724-112.158,105.127-124.785c32.829-5.889,76.191,6.688,92.9,34.51c13.075,21.771,0.895,38.004,16.793,62.039
				c15.888,24.021,34.89,18.146,55.143,38.181c32.159,31.813,37.088,98.895,8.056,136.83
				c-13.543,17.694-31.142,24.692-64.254,37.858c-20.227,8.041-39.027,13.044-55.221,16.221
				c40.547-38.916,61.588-89.104,51.227-132.941c-10.825-45.793-53.657-75.382-87.626-92.206
				c-33.991,63.967-61.771,138.092-71.021,207.922c-6.165,46.529-4.308,92.658-39.063,130.92
				c-6.688,7.36-27.776,30.576-48.566,26.243c-24.757-5.159-22.527-43.845-55.425-59.989c-10.797-5.299-14.521-2.842-61.819-2.15
				c-29.546,0.432-59.433,0.783-91.481-2.854c-26.996-3.065-64.526-7.361-75.729-21.729
				C2593.1,2437.436,2625.627,2423.928,2647.311,2410.225z"/>
			<g>
				
					<linearGradient id="SVGID_103_" gradientUnits="userSpaceOnUse" x1="2428.5315" y1="1052.3584" x2="3195.886" y2="1052.3584" gradientTransform="matrix(1 0 0 -1 -197.5996 3390.0098)">
					<stop  offset="0" style="stop-color:#444B8C"/>
					<stop  offset="0.9964" style="stop-color:#26264F"/>
				</linearGradient>
				<path fill="url(#SVGID_103_)" d="M2992.693,2462.586l3.813-11.217c6.08-17.885-3.916-36.957-22.313-42.562l-721.283-219.717
					l-21.979,74.494l717.641,221.04C2966.873,2490.263,2986.633,2480.412,2992.693,2462.586z"/>
				
					<linearGradient id="SVGID_104_" gradientUnits="userSpaceOnUse" x1="1720.8225" y1="1294.5762" x2="2512.5891" y2="1294.5762" gradientTransform="matrix(1 0 0 -1 -197.5996 3390.0098)">
					<stop  offset="0" style="stop-color:#444B8C"/>
					<stop  offset="0.9964" style="stop-color:#26264F"/>
				</linearGradient>
				<path fill="url(#SVGID_104_)" d="M1536.161,1987.27c55.147-217.869,271.251-349.168,484.971-287.633
					c217.641,62.664,342.243,298.479,276.116,520.769c-64.572,217.069-286.017,334.172-492.652,267.2
					C1601.53,2421.789,1482.269,2200.184,1536.161,1987.27z M2234.471,2201.174c54.65-186.031-49.623-383.065-231.366-435.937
					c-178.998-52.074-360.853,57.228-407.779,240.155c-46.026,179.42,54.481,366.437,225.947,421.527
					C1995.275,2482.826,2180.896,2383.539,2234.471,2201.174z"/>
				<path opacity="0.3" fill="#D8DEE8" enable-background="new    " d="M2252.909,2189.092l91.968,28.017
					c6.311,29.331,18.58,46.137,30.928,56.371c46.453,38.509,108.481-3.49,195.021,41.664
					c43.426,22.657,35.176,37.077,75.879,52.887c67.294,26.139,98.098-10.067,157.653,13.723
					c60.239,24.063,66.178,76.066,100.342,74.201c14.614-0.799,33.429-11.431,54.407-51.74l15.086,4.597
					c18.396,5.604,28.393,24.676,22.313,42.561l-3.813,11.216c-6.062,17.826-25.82,27.677-44.121,22.04l-717.64-221.041
					L2252.909,2189.092z"/>
				<path opacity="0.56" fill="#FFFFFF" enable-background="new    " d="M1804.242,2456.734
					c179.986,57.923,372.15-44.65,427.717-233.365c56.725-192.646-51.259-396.744-239.537-451.414
					c-185.335-53.815-373.465,59.48-421.913,248.799C1523.022,2206.318,1626.971,2399.686,1804.242,2456.734z"/>
				
					<linearGradient id="SVGID_105_" gradientUnits="userSpaceOnUse" x1="-4587.666" y1="254.9209" x2="-4986.3335" y2="701.2915" gradientTransform="matrix(-0.8705 0.4922 -0.4922 -0.8705 -2055.8601 5020.3892)">
					<stop  offset="0" style="stop-color:#444B8C"/>
					<stop  offset="0.9964" style="stop-color:#26264F"/>
				</linearGradient>
				<path fill="url(#SVGID_105_)" d="M1522.191,2005.955c55.147-217.87,271.251-349.169,484.97-287.634
					c217.643,62.665,342.243,298.478,276.118,520.767c-64.573,217.071-286.018,334.174-492.653,267.201
					C1587.56,2440.475,1468.298,2218.868,1522.191,2005.955z M2220.5,2219.857c54.65-186.029-49.623-383.064-231.366-435.937
					c-178.998-52.073-360.853,57.228-407.78,240.156c-46.026,179.419,54.48,366.435,225.948,421.526
					C1981.305,2501.512,2166.926,2402.225,2220.5,2219.857z"/>
				
					<linearGradient id="SVGID_106_" gradientUnits="userSpaceOnUse" x1="-5173.709" y1="906.6504" x2="-4633.0166" y2="311.4341" gradientTransform="matrix(-0.8705 0.4922 -0.4922 -0.8705 -2055.8601 5020.3892)">
					<stop  offset="0" style="stop-color:#444B8C"/>
					<stop  offset="0.9964" style="stop-color:#26264F"/>
				</linearGradient>
				<path fill="url(#SVGID_106_)" d="M1543.079,2012.354c52.268-205.51,256.273-328.986,457.691-270.779
					c204.897,59.212,322.295,281.266,260.269,490.704c-60.654,204.799-269.413,315.641-464.528,252.596
					C1604.58,2422.857,1491.937,2213.447,1543.079,2012.354z M2220.5,2219.857c54.65-186.029-49.623-383.064-231.366-435.937
					c-178.998-52.073-360.853,57.228-407.78,240.156c-46.026,179.419,54.48,366.435,225.948,421.526
					C1981.305,2501.512,2166.926,2402.225,2220.5,2219.857z"/>
			</g>
			
				<linearGradient id="SVGID_107_" gradientUnits="userSpaceOnUse" x1="3156.467" y1="959.9849" x2="3305.1868" y2="1038.1099" gradientTransform="matrix(1 0 0 -1 -197.5996 3390.0098)">
				<stop  offset="0" style="stop-color:#AB316D"/>
				<stop  offset="1" style="stop-color:#792D3D"/>
			</linearGradient>
			<path fill="url(#SVGID_107_)" d="M3011.403,2429.956l-7.289-18.116c0,0-11.898,0.726-21.665-6.277
				c-5.319-3.815-14.764-4.951-17.509-4.189c-2.743,0.761-13.107,0.309-1.294,5.945c11.813,5.634,11.72,9.82,6.796,14.447
				c-4.924,4.625-23.661,14.576-30.405,15.056c-6.743,0.479,5.45,10.911,12.251,12.243c6.803,1.33,17.956,3.017,31.755-5.108
				C2989.074,2440.992,3011.403,2429.956,3011.403,2429.956z"/>
			
				<linearGradient id="SVGID_108_" gradientUnits="userSpaceOnUse" x1="6053.7109" y1="1529.4473" x2="6135.4629" y2="1529.4473" gradientTransform="matrix(0.8553 0.5182 0.5182 -0.8553 -3685.6375 436.337)">
				<stop  offset="0" style="stop-color:#AB316D"/>
				<stop  offset="1" style="stop-color:#792D3D"/>
			</linearGradient>
			<path fill="url(#SVGID_108_)" d="M2357.611,2302.604c0,0-30.485-30.024-48.649-37.798c-18.165-7.772-29.9,3.388-28.231,11.114
				c1.669,7.725,31.556,18.48,43.495,18.867S2357.611,2302.604,2357.611,2302.604z"/>
		</g>
	</g>
</g>
</svg>
