<?xml version="1.0" encoding="utf-8"?>
<!-- Generator: Adobe Illustrator 25.2.3, SVG Export Plug-In . SVG Version: 6.00 Build 0)  -->
<svg version="1.1" id="Calque_1" xmlns="http://www.w3.org/2000/svg" xmlns:xlink="http://www.w3.org/1999/xlink" x="0px" y="0px"
	 viewBox="0 0 595.28 841.89" style="enable-background:new 0 0 595.28 841.89;" xml:space="preserve">
<style type="text/css">
	.st0{fill:url(#SVGID_1_);}
	.st1{fill:url(#SVGID_2_);}
	.st2{fill:url(#SVGID_3_);}
	.st3{fill:url(#SVGID_4_);}
	.st4{fill:url(#SVGID_5_);}
	.st5{fill:url(#SVGID_6_);}
	.st6{fill:url(#SVGID_7_);}
	.st7{fill:url(#SVGID_8_);}
	.st8{fill:url(#SVGID_9_);}
	.st9{fill:url(#SVGID_10_);}
	.st10{fill:url(#SVGID_11_);}
</style>
<g>
	
		<linearGradient id="SVGID_1_" gradientUnits="userSpaceOnUse" x1="99.1877" y1="445.3071" x2="494.1777" y2="445.3071" gradientTransform="matrix(1 0 0 1 0 -6.103516e-05)">
		<stop  offset="3.600000e-03" style="stop-color:#26264F"/>
		<stop  offset="1" style="stop-color:#444B8C"/>
	</linearGradient>
	<path class="st0" d="M186.83,413.08c-26.43,5.05-52.23,7.26-78.56,12.86c-3.4,0.72-6.07,5.56-9.08,8.5
		c3.83,1.18,7.62,2.99,11.51,3.32c2.86,0.24,5.83-1.56,8.79-2.27c37.32-8.91,74.83-14.49,112.55-3.5
		c16.67,4.86,31.31,12.93,40.34,31.28c10.14,20.6,38.85,19.14,50.28-1.06c3.68-6.5,7.93-14,13.7-17.4
		c11.18-6.59,23.27-12.66,35.63-15.28c37.62-7.96,74.69-1.47,111.47,8.14c3.22,0.84,7.13-1.52,10.72-2.39
		c-2.68-3.18-4.9-8.33-8.12-9.24c-35.78-10.16-72.07-17.15-109.07-10.49c-26.44,4.76-51.74,12.34-65.89,41.93
		c-5.92,12.37-24.49,10.6-29.98-2.56c-5.69-13.61-15.77-20.9-26.94-27.18C233.41,416.07,213.32,410.78,186.83,413.08z"/>
	
		<linearGradient id="SVGID_2_" gradientUnits="userSpaceOnUse" x1="99.1976" y1="445.5077" x2="494.1877" y2="445.5077" gradientTransform="matrix(1 0 0 1 0 -6.103516e-05)">
		<stop  offset="3.600000e-03" style="stop-color:#26264F"/>
		<stop  offset="1" style="stop-color:#444B8C"/>
	</linearGradient>
	<path class="st1" d="M186.83,413.08c18.86,2.59,46.58,2.99,67.36,14.67c11.16,6.27,21.25,13.57,26.94,27.18
		c5.5,13.16,24.07,14.93,29.98,2.56c14.15-29.59,39.44-37.17,65.89-41.93c37-6.66,73.29,0.33,109.07,10.49
		c3.22,0.91,5.44,6.06,8.12,9.24c-3.59,0.87-7.5,3.23-10.72,2.39c-36.78-9.62-73.85-16.1-111.47-8.14
		c-12.36,2.62-24.45,8.69-35.63,15.28c-5.77,3.4-10.02,10.9-13.7,17.4c-11.43,20.2-40.14,21.66-50.28,1.06
		c-9.03-18.35-23.67-26.43-40.34-31.28c-37.72-10.99-75.23-5.41-112.55,3.5c-2.96,0.71-5.94,2.51-8.79,2.27
		c-3.89-0.33-7.68-2.14-11.51-3.32c3.01-2.93,5.68-7.77,9.08-8.5C134.61,420.34,159.17,415.85,186.83,413.08z"/>
</g>
<linearGradient id="SVGID_3_" gradientUnits="userSpaceOnUse" x1="316.8177" y1="404.175" x2="484.4694" y2="404.175" gradientTransform="matrix(1 0 0 1 0 -6.103516e-05)">
	<stop  offset="3.600000e-03" style="stop-color:#26264F"/>
	<stop  offset="1" style="stop-color:#444B8C"/>
</linearGradient>
<path class="st2" d="M316.82,434.35c0,0,48.38-55.24,167.55-48.56C488.63,370.64,357.91,356.77,316.82,434.35z"/>
<linearGradient id="SVGID_4_" gradientUnits="userSpaceOnUse" x1="315.1776" y1="376.3702" x2="438.9394" y2="376.3702" gradientTransform="matrix(1 0 0 1 0 -6.103516e-05)">
	<stop  offset="3.600000e-03" style="stop-color:#26264F"/>
	<stop  offset="1" style="stop-color:#444B8C"/>
</linearGradient>
<path class="st3" d="M438.94,341.31c0.5-12.94-105.87,3.75-123.76,74.13C315.19,415.44,343.1,361.27,438.94,341.31"/>
<linearGradient id="SVGID_5_" gradientUnits="userSpaceOnUse" x1="109.8934" y1="404.1826" x2="279.4776" y2="404.1826" gradientTransform="matrix(1 0 0 1 0 -6.103516e-05)">
	<stop  offset="3.600000e-03" style="stop-color:#26264F"/>
	<stop  offset="1" style="stop-color:#444B8C"/>
</linearGradient>
<path class="st4" d="M110.03,390.86c-4.89-14.93,125.13-34.89,169.45,40.7C279.49,431.55,228.82,378.63,110.03,390.86"/>
<linearGradient id="SVGID_6_" gradientUnits="userSpaceOnUse" x1="158.5063" y1="376.8023" x2="281.8177" y2="376.8023" gradientTransform="matrix(1 0 0 1 0 -6.103516e-05)">
	<stop  offset="3.600000e-03" style="stop-color:#26264F"/>
	<stop  offset="1" style="stop-color:#444B8C"/>
</linearGradient>
<path class="st5" d="M158.51,341.23c-0.43-12.94,105.84,4.55,123.31,75.07C281.82,416.29,254.22,361.92,158.51,341.23"/>
<linearGradient id="SVGID_7_" gradientUnits="userSpaceOnUse" x1="275.5177" y1="344.659" x2="317.8577" y2="344.659" gradientTransform="matrix(1 0 0 1 0 -6.103516e-05)">
	<stop  offset="0" style="stop-color:#311944"/>
	<stop  offset="1" style="stop-color:#6B3976"/>
</linearGradient>
<ellipse class="st6" cx="296.69" cy="344.66" rx="21.17" ry="22.37"/>
<linearGradient id="SVGID_8_" gradientUnits="userSpaceOnUse" x1="372.6577" y1="302.319" x2="403.8177" y2="302.319" gradientTransform="matrix(1 0 0 1 0 -6.103516e-05)">
	<stop  offset="0" style="stop-color:#FFC444"/>
	<stop  offset="0.9964" style="stop-color:#F36F56"/>
</linearGradient>
<ellipse class="st7" cx="388.24" cy="302.32" rx="15.58" ry="16.47"/>
<linearGradient id="SVGID_9_" gradientUnits="userSpaceOnUse" x1="328.2177" y1="292.479" x2="340.7577" y2="292.479" gradientTransform="matrix(1 0 0 1 0 -6.103516e-05)">
	<stop  offset="0" style="stop-color:#FFC444"/>
	<stop  offset="0.9964" style="stop-color:#F36F56"/>
</linearGradient>
<ellipse class="st8" cx="334.49" cy="292.48" rx="6.27" ry="6.63"/>
<linearGradient id="SVGID_10_" gradientUnits="userSpaceOnUse" x1="217.4277" y1="292.479" x2="229.9677" y2="292.479" gradientTransform="matrix(1 0 0 1 0 -6.103516e-05)">
	<stop  offset="3.600000e-03" style="stop-color:#E38DDD"/>
	<stop  offset="1" style="stop-color:#9571F6"/>
</linearGradient>
<ellipse class="st9" cx="223.7" cy="292.48" rx="6.27" ry="6.63"/>
<linearGradient id="SVGID_11_" gradientUnits="userSpaceOnUse" x1="278.6477" y1="248.859" x2="296.6877" y2="248.859" gradientTransform="matrix(1 0 0 1 0 -6.103516e-05)">
	<stop  offset="0" style="stop-color:#40447E"/>
	<stop  offset="0.9964" style="stop-color:#3C3B6B"/>
</linearGradient>
<ellipse class="st10" cx="287.67" cy="248.86" rx="9.02" ry="9.53"/>
<g id="Background">
</g>
</svg>
